<svg width="200" height="22" viewBox="0 0 200 22" fill="none" xmlns="http://www.w3.org/2000/svg">
<path d="M76.2532 7.71843C76.2532 8.73625 74.6389 9.54202 72.5998 9.54202C70.6032 9.54202 68.9465 8.73625 68.9465 7.71843C68.9465 6.70062 70.5607 5.89485 72.5998 5.89485C74.5964 5.89485 76.2532 6.74303 76.2532 7.71843ZM127.358 5.89485C125.361 5.89485 123.704 6.70062 123.704 7.71843C123.704 8.73625 125.319 9.54202 127.358 9.54202C129.397 9.54202 131.011 8.73625 131.011 7.71843C131.011 6.74303 129.397 5.89485 127.358 5.89485ZM197.239 17.3029H147.706C141.886 17.3029 137.213 14.3766 137.213 10.9415C137.213 7.50639 141.886 4.58017 147.706 4.58017H197.239C198.768 4.58017 200 3.64717 200 2.54454C200 1.3995 198.768 0.508908 197.239 0.508908H147.706C139.38 0.508908 132.88 5.08908 132.88 10.9839C132.88 12.7651 133.432 14.419 134.749 16.1578L102.846 0.720952C101.912 0.254454 101.02 0 99.9575 0C98.8955 0 98.0459 0.254454 97.0688 0.720952L64.3161 16.5395V2.29008C64.3161 1.14504 62.7868 0.254454 60.8751 0.254454C59.6007 0.254454 58.836 0.593725 58.836 0.593725L26.8904 14.0798L29.6517 15.2248C30.5013 15.5641 31.2659 15.7337 32.2005 15.7337C33.1351 15.7337 33.8997 15.5641 34.7494 15.2248L60.2804 4.41053V20.1867C60.2804 20.95 61.215 21.5438 62.3195 21.5438H62.4894C62.9992 21.5438 63.4664 21.4165 63.8488 21.2469L100 3.81681L116.61 11.8745H85.7689L77.5701 15.8185H124.809L136.151 21.2893C136.534 21.4589 137.001 21.5862 137.511 21.5862C138.743 21.5862 139.72 20.9924 139.72 20.2291C139.72 20.1443 139.72 19.9322 139.507 19.6778C141.674 20.6532 144.435 21.4165 147.706 21.3741H197.239C198.768 21.3741 200 20.4411 200 19.3385C199.958 18.1934 198.726 17.3029 197.239 17.3029ZM30.9686 11.3656L5.48003 0.593725C5.48003 0.593725 4.6729 0.254454 3.44095 0.254454C1.52931 0.212045 0 1.14504 0 2.29008V20.2715C0 21.0348 0.93458 21.6286 2.03908 21.6286C3.18607 21.6286 4.07817 21.0348 4.07817 20.2715V4.45294L25.6585 13.5709L30.9686 11.3656Z" fill="white"/>
</svg>
